<svg xmlns="http://www.w3.org/2000/svg" style="display: none;">

  <!-- ==================== 自定义图标库 (Custom) ==================== -->
  <!-- 纯 currentColor 驱动，颜色通过 CSS 变量控制 -->
  <!-- 前缀: pc- (pixel custom) -->

  <!-- Home -->
  <symbol id="pc-icon-home" viewBox="0 0 24 24">
    <path fill="currentColor" d="M12 3L2 12h3v8h6v-6h2v6h6v-8h3L12 3zm0 2.5L18 11v7h-2v-6H8v6H6v-7l6-5.5z"/>
  </symbol>

  <!-- User -->
  <symbol id="pc-icon-user" viewBox="0 0 24 24">
    <path fill="currentColor" d="M12 12c2.21 0 4-1.79 4-4s-1.79-4-4-4-4 1.79-4 4 1.79 4 4 4zm0 2c-2.67 0-8 1.34-8 4v2h16v-2c0-2.66-5.33-4-8-4z"/>
  </symbol>

  <!-- Settings / Gear -->
  <symbol id="pc-icon-settings" viewBox="0 0 24 24">
    <path fill="currentColor" d="M19.14 12.94c.04-.31.06-.63.06-.94 0-.31-.02-.63-.06-.94l2.03-1.58c.18-.14.23-.41.12-.61l-1.92-3.32c-.12-.22-.37-.29-.59-.22l-2.39.96c-.5-.38-1.03-.7-1.62-.94L14.4 2.81c-.04-.24-.24-.41-.48-.41h-3.84c-.24 0-.43.17-.47.41l-.36 2.54c-.59.24-1.13.57-1.62.94l-2.39-.96c-.22-.08-.47 0-.59.22L2.74 8.87c-.12.21-.08.47.12.61l2.03 1.58c-.04.31-.07.64-.07.94s.02.63.07.94l-2.03 1.58c-.18.14-.23.41-.12.61l1.92 3.32c.12.22.37.29.59.22l2.39-.96c.5.38 1.03.7 1.62.94l.36 2.54c.05.24.24.41.48.41h3.84c.24 0 .44.17.47.41l.36-2.54c.59-.24 1.13-.56 1.62-.94l2.39.96c.22.08.47 0 .59-.22l1.92-3.32c.12-.22.07-.47-.12-.61l-2.01-1.58zM12 15.6A3.6 3.6 0 1 1 12 8.4a3.6 3.6 0 0 1 0 7.2z"/>
  </symbol>

  <!-- Search -->
  <symbol id="pc-icon-search" viewBox="0 0 24 24">
    <path fill="currentColor" d="M15.5 14h-.79l-.28-.27A6.471 6.471 0 0 0 16 9.5 6.5 6.5 0 1 0 9.5 16c1.61 0 3.09-.59 4.23-1.57l.27.28v.79l5 4.99L20.49 19l-4.99-5zm-6 0C7.01 14 5 11.99 5 9.5S7.01 5 9.5 5 14 7.01 14 9.5 11.99 14 9.5 14z"/>
  </symbol>

  <!-- Menu / Hamburger -->
  <symbol id="pc-icon-menu" viewBox="0 0 24 24">
    <path fill="currentColor" d="M3 18h18v-2H3v2zm0-5h18v-2H3v2zm0-7v2h18V6H3z"/>
  </symbol>

  <!-- Close / X -->
  <symbol id="pc-icon-close" viewBox="0 0 24 24">
    <path fill="currentColor" d="M19 6.41L17.59 5 12 10.59 6.41 5 5 6.41 10.59 12 5 17.59 6.41 19 12 13.41 17.59 19 19 17.59 13.41 12z"/>
  </symbol>

  <!-- Plus / Add -->
  <symbol id="pc-icon-plus" viewBox="0 0 24 24">
    <path fill="currentColor" d="M19 13h-6v6h-2v-6H5v-2h6V5h2v6h6v2z"/>
  </symbol>

  <!-- Check / Done -->
  <symbol id="pc-icon-check" viewBox="0 0 24 24">
    <path fill="currentColor" d="M9 16.17L4.83 12l-1.42 1.41L9 19 21 7l-1.41-1.41z"/>
  </symbol>

  <!-- Info -->
  <symbol id="pc-icon-info" viewBox="0 0 24 24">
    <path fill="currentColor" d="M12 2C6.48 2 2 6.48 2 12s4.48 10 10 10 10-4.48 10-10S17.52 2 12 2zm1 15h-2v-6h2v6zm0-8h-2V7h2v2z"/>
  </symbol>

  <!-- Warning -->
  <symbol id="pc-icon-warning" viewBox="0 0 24 24">
    <path fill="currentColor" d="M1 21h22L12 2 1 21zm12-3h-2v-2h2v2zm0-4h-2v-4h2v4z"/>
  </symbol>

  <!-- Error -->
  <symbol id="pc-icon-error" viewBox="0 0 24 24">
    <path fill="currentColor" d="M12 2C6.47 2 2 6.47 2 12s4.47 10 10 10 10-4.47 10-10S17.53 2 12 2zm5 13.59L15.59 17 12 13.41 8.41 17 7 15.59 10.59 12 7 8.41 8.41 7 12 10.59 15.59 7 17 8.41 13.41 12 17 15.59z"/>
  </symbol>

  <!-- Success -->
  <symbol id="pc-icon-success" viewBox="0 0 24 24">
    <path fill="currentColor" d="M12 2C6.48 2 2 6.48 2 12s4.48 10 10 10 10-4.48 10-10S17.52 2 12 2zm-2 15l-5-5 1.41-1.41L10 14.17l7.59-7.59L19 8l-9 9z"/>
  </symbol>

  <!-- File -->
  <symbol id="pc-icon-file" viewBox="0 0 24 24">
    <path fill="currentColor" d="M14 2H6c-1.1 0-1.99.9-1.99 2L4 20c0 1.1.89 2 1.99 2H18c1.1 0 2-.89 2-2V8l-6-6zm2 16H8v-2h8v2zm0-4H8v-2h8v2zm-3-5V3.5L18.5 9H13z"/>
  </symbol>

  <!-- Folder -->
  <symbol id="pc-icon-folder" viewBox="0 0 24 24">
    <path fill="currentColor" d="M10 4H4c-1.1 0-1.99.9-1.99 2L2 18c0 1.1.9 2 2 2h16c1.1 0 2-.9 2-2V8c0-1.1-.9-2-2-2h-8l-2-2z"/>
  </symbol>

  <!-- Download -->
  <symbol id="pc-icon-download" viewBox="0 0 24 24">
    <path fill="currentColor" d="M19 9h-4V3H9v6H5l7 7 7-7zM5 18v2h14v-2H5z"/>
  </symbol>

  <!-- Upload -->
  <symbol id="pc-icon-upload" viewBox="0 0 24 24">
    <path fill="currentColor" d="M9 16h6v-6h4l-7-7-7 7h4zm-4 2h14v2H5z"/>
  </symbol>

  <!-- Eye / View -->
  <symbol id="pc-icon-eye" viewBox="0 0 24 24">
    <path fill="currentColor" d="M12 4.5C7 4.5 2.73 7.61 1 12c1.73 4.39 6 7.5 11 7.5s9.27-3.11 11-7.5c-1.73-4.39-6-7.5-11-7.5zM12 17c-2.76 0-5-2.24-5-5s2.24-5 5-5 5 2.24 5 5-2.24 5-5 5zm0-8c-1.66 0-3 1.34-3 3s1.34 3 3 3 3-1.34 3-3-1.34-3-3-3z"/>
  </symbol>

  <!-- Lock -->
  <symbol id="pc-icon-lock" viewBox="0 0 24 24">
    <path fill="currentColor" d="M18 8h-1V6c0-2.76-2.24-5-5-5S7 3.24 7 6v2H6c-1.1 0-2 .9-2 2v10c0 1.1.9 2 2 2h12c1.1 0 2-.9 2-2V10c0-1.1-.9-2-2-2zm-6 9c-1.1 0-2-.9-2-2s.9-2 2-2 2 .9 2 2-.9 2-2 2zm3.1-9H8.9V6c0-1.71 1.39-3.1 3.1-3.1 1.71 0 3.1 1.39 3.1 3.1v2z"/>
  </symbol>

  <!-- Star -->
  <symbol id="pc-icon-star" viewBox="0 0 24 24">
    <path fill="currentColor" d="M12 17.27L18.18 21l-1.64-7.03L22 9.24l-7.19-.61L12 2 9.19 8.63 2 9.24l5.46 4.73L5.82 21z"/>
  </symbol>

  <!-- Heart -->
  <symbol id="pc-icon-heart" viewBox="0 0 24 24">
    <path fill="currentColor" d="M12 21.35l-1.45-1.32C5.4 15.36 2 12.28 2 8.5 2 5.42 4.42 3 7.5 3c1.74 0 3.41.81 4.5 2.09C13.09 3.81 14.76 3 16.5 3 19.58 3 22 5.42 22 8.5c0 3.78-3.4 6.86-8.55 11.54L12 21.35z"/>
  </symbol>

  <!-- Message / Chat -->
  <symbol id="pc-icon-message" viewBox="0 0 24 24">
    <path fill="currentColor" d="M20 2H4c-1.1 0-1.99.9-1.99 2L2 22l4-4h14c1.1 0 2-.9 2-2V4c0-1.1-.9-2-2-2zm-2 12H6v-2h12v2zm0-3H6V9h12v2zm0-3H6V6h12v2z"/>
  </symbol>

  <!-- Bell / Notification -->
  <symbol id="pc-icon-bell" viewBox="0 0 24 24">
    <path fill="currentColor" d="M12 22c1.1 0 2-.9 2-2h-4c0 1.1.89 2 2 2zm6-6v-5c0-3.07-1.64-5.64-4.5-6.32V4c0-.83-.67-1.5-1.5-1.5s-1.5.67-1.5 1.5v.68C7.63 5.36 6 7.92 6 11v5l-2 2v1h16v-1l-2-2z"/>
  </symbol>

  <!-- Edit / Pencil -->
  <symbol id="pc-icon-edit" viewBox="0 0 24 24">
    <path fill="currentColor" d="M3 17.25V21h3.75L17.81 9.94l-3.75-3.75L3 17.25zM20.71 7.04c.39-.39.39-1.02 0-1.41l-2.34-2.34c-.39-.39-1.02-.39-1.41 0l-1.83 1.83 3.75 3.75 1.83-1.83z"/>
  </symbol>

  <!-- Trash / Delete -->
  <symbol id="pc-icon-trash" viewBox="0 0 24 24">
    <path fill="currentColor" d="M6 19c0 1.1.9 2 2 2h8c1.1 0 2-.9 2-2V7H6v12zM19 4h-3.5l-1-1h-5l-1 1H5v2h14V4z"/>
  </symbol>

  <!-- Copy -->
  <symbol id="pc-icon-copy" viewBox="0 0 24 24">
    <path fill="currentColor" d="M16 1H4c-1.1 0-2 .9-2 2v14h2V3h12V1zm3 4H8c-1.1 0-2 .9-2 2v14c0 1.1.9 2 2 2h11c1.1 0 2-.9 2-2V7c0-1.1-.9-2-2-2zm0 16H8V7h11v14z"/>
  </symbol>

  <!-- Refresh / Reload -->
  <symbol id="pc-icon-refresh" viewBox="0 0 24 24">
    <path fill="currentColor" d="M17.65 6.35A7.958 7.958 0 0 0 12 4c-4.42 0-7.99 3.58-7.99 8s3.57 8 7.99 8c3.73 0 6.84-2.55 7.73-6h-2.08A5.99 5.99 0 0 1 12 18c-3.31 0-6-2.69-6-6s2.69-6 6-6c1.66 0 3.14.69 4.22 1.78L13 11h7V4l-2.35 2.35z"/>
  </symbol>

  <!-- Save -->
  <symbol id="pc-icon-save" viewBox="0 0 24 24">
    <path fill="currentColor" d="M17 3H5c-1.11 0-2 .9-2 2v14c0 1.1.89 2 2 2h14c1.1 0 2-.9 2-2V7l-4-4zm-5 16c-1.66 0-3-1.34-3-3s1.34-3 3-3 3 1.34 3 3-1.34 3-3 3zm3-10H5V5h10v4z"/>
  </symbol>

  <!-- Share -->
  <symbol id="pc-icon-share" viewBox="0 0 24 24">
    <path fill="currentColor" d="M18 16.08c-.76 0-1.44.3-1.96.77L8.91 12.7c.05-.23.09-.46.09-.7s-.04-.47-.09-.7l7.05-4.11c.54.5 1.25.81 2.04.81 1.66 0 3-1.34 3-3s-1.34-3-3-3-3 1.34-3 3c0 .24.04.47.09.7L8.04 9.81C7.5 9.31 6.79 9 6 9c-1.66 0-3 1.34-3 3s1.34 3 3 3c.79 0 1.5-.31 2.04-.81l7.12 4.16c-.05.21-.08.43-.08.65 0 1.61 1.31 2.92 2.92 2.92 1.61 0 2.92-1.31 2.92-2.92s-1.31-2.92-2.92-2.92z"/>
  </symbol>

  <!-- Phone -->
  <symbol id="pc-icon-phone" viewBox="0 0 24 24">
    <path fill="currentColor" d="M6.62 10.79c1.44 2.83 3.76 5.14 6.59 6.59l2.2-2.2c.27-.27.67-.36 1.02-.24 1.12.37 2.33.57 3.57.57.55 0 1 .45 1 1V20c0 .55-.45 1-1 1-9.39 0-17-7.61-17-17 0-.55.45-1 1-1h3.5c.55 0 1 .45 1 1 0 1.25.2 2.45.57 3.57.11.35.03.74-.25 1.02l-2.2 2.2z"/>
  </symbol>

  <!-- Mail / Email -->
  <symbol id="pc-icon-mail" viewBox="0 0 24 24">
    <path fill="currentColor" d="M20 4H4c-1.1 0-1.99.9-1.99 2L2 18c0 1.1.9 2 2 2h16c1.1 0 2-.9 2-2V6c0-1.1-.9-2-2-2zm0 4l-8 5-8-5V6l8 5 8-5v2z"/>
  </symbol>

  <!-- Calendar -->
  <symbol id="pc-icon-calendar" viewBox="0 0 24 24">
    <path fill="currentColor" d="M19 3h-1V1h-2v2H8V1H6v2H5c-1.11 0-1.99.9-1.99 2L3 19c0 1.1.89 2 2 2h14c1.1 0 2-.9 2-2V5c0-1.1-.9-2-2-2zm0 16H5V8h14v11zM9 10H7v2h2v-2zm4 0h-2v2h2v-2zm4 0h-2v2h2v-2z"/>
  </symbol>

  <!-- Clock / Time -->
  <symbol id="pc-icon-clock" viewBox="0 0 24 24">
    <path fill="currentColor" d="M11.99 2C6.47 2 2 6.48 2 12s4.47 10 9.99 10C17.52 22 22 17.52 22 12S17.52 2 11.99 2zM12 20c-4.42 0-8-3.58-8-8s3.58-8 8-8 8 3.58 8 8-3.58 8-8 8zm.5-13H11v6l5.25 3.15.75-1.23-4.5-2.67z"/>
  </symbol>

  <!-- Location / Pin -->
  <symbol id="pc-icon-location" viewBox="0 0 24 24">
    <path fill="currentColor" d="M12 2C8.13 2 5 5.13 5 9c0 5.25 7 13 7 13s7-7.75 7-13c0-3.87-3.13-7-7-7zm0 9.5c-1.38 0-2.5-1.12-2.5-2.5s1.12-2.5 2.5-2.5 2.5 1.12 2.5 2.5-1.12 2.5-2.5 2.5z"/>
  </symbol>

  <!-- Play -->
  <symbol id="pc-icon-play" viewBox="0 0 24 24">
    <path fill="currentColor" d="M8 5v14l11-7z"/>
  </symbol>

  <!-- Pause -->
  <symbol id="pc-icon-pause" viewBox="0 0 24 24">
    <path fill="currentColor" d="M6 19h4V5H6v14zm8-14v14h4V5h-4z"/>
  </symbol>

  <!-- Bar Chart -->
  <symbol id="pc-icon-bar-chart" viewBox="0 0 24 24">
    <path fill="currentColor" d="M5 9.2h3V19H5V9.2zM10.6 5h2.8v14h-2.8V5zm5.6 8H19v6h-2.8v-6z"/>
  </symbol>

  <!-- Line Chart -->
  <symbol id="pc-icon-line-chart" viewBox="0 0 24 24">
    <path fill="currentColor" d="M3.5 18.49l6-6.01 4 4L22 6.92l-1.41-1.41-7.09 7.97-4-4L2 16.99z"/>
  </symbol>

  <!-- Database -->
  <symbol id="pc-icon-database" viewBox="0 0 24 24">
    <path fill="currentColor" d="M12 3C7.58 3 4 4.79 4 7v10c0 2.21 3.58 4 8 4s8-1.79 8-4V7c0-2.21-3.58-4-8-4zm0 2c3.87 0 6 1.5 6 2s-2.13 2-6 2-6-1.5-6-2 2.13-2 6-2zM6 17v-2.34c1.67.89 3.85 1.34 6 1.34s4.33-.45 6-1.34V17c0 .5-2.13 2-6 2s-6-1.5-6-2z"/>
  </symbol>

  <!-- Server -->
  <symbol id="pc-icon-server" viewBox="0 0 24 24">
    <path fill="currentColor" d="M4 1h16c1.1 0 2 .9 2 2v4c0 1.1-.9 2-2 2H4c-1.1 0-2-.9-2-2V3c0-1.1.9-2 2-2zm0 8h16c1.1 0 2 .9 2 2v4c0 1.1-.9 2-2 2H4c-1.1 0-2-.9-2-2v-4c0-1.1.9-2 2-2zm0 8h16c1.1 0 2 .9 2 2v4c0 1.1-.9 2-2 2H4c-1.1 0-2-.9-2-2v-4c0-1.1.9-2 2-2zm4-13v2h2V4H8zm0 8v2h2v-2H8zm0 8v2h2v-2H8z"/>
  </symbol>

  <!-- Image / Picture -->
  <symbol id="pc-icon-image" viewBox="0 0 24 24">
    <path fill="currentColor" d="M21 19V5c0-1.1-.9-2-2-2H5c-1.1 0-2 .9-2 2v14c0 1.1.9 2 2 2h14c1.1 0 2-.9 2-2zM8.5 13.5l2.5 3.01L14.5 12l4.5 6H5l3.5-4.5z"/>
  </symbol>

  <!-- Arrow Right -->
  <symbol id="pc-icon-arrow-right" viewBox="0 0 24 24">
    <path fill="currentColor" d="M8.59 16.59L13.17 12 8.59 7.41 10 6l6 6-6 6-1.41-1.41z"/>
  </symbol>

  <!-- Arrow Down -->
  <symbol id="pc-icon-arrow-down" viewBox="0 0 24 24">
    <path fill="currentColor" d="M7.41 8.59L12 13.17l4.59-4.58L18 10l-6 6-6-6 1.41-1.41z"/>
  </symbol>

  <!-- Arrow Left -->
  <symbol id="pc-icon-arrow-left" viewBox="0 0 24 24">
    <path fill="currentColor" d="M15.41 16.59L10.83 12l4.58-4.59L14 6l-6 6 6 6 1.41-1.41z"/>
  </symbol>

  <!-- Arrow Up -->
  <symbol id="pc-icon-arrow-up" viewBox="0 0 24 24">
    <path fill="currentColor" d="M4 12l1.41 1.41L11 7.83V20h2V7.83l5.58 5.59L20 12l-8-8-8 8z"/>
  </symbol>

  <!-- Chevron Left -->
  <symbol id="pc-icon-chevron-left" viewBox="0 0 24 24">
    <path fill="currentColor" d="M15.41 7.41L14 6l-6 6 6 6 1.41-1.41L10.83 12z"/>
  </symbol>

  <!-- Chevron Right -->
  <symbol id="pc-icon-chevron-right" viewBox="0 0 24 24">
    <path fill="currentColor" d="M10 6L8.59 7.41 13.17 12l-4.58 4.59L10 18l6-6z"/>
  </symbol>

  <!-- External Link -->
  <symbol id="pc-icon-external-link" viewBox="0 0 24 24">
    <path fill="currentColor" d="M19 19H5V5h7V3H5c-1.11 0-2 .9-2 2v14c0 1.1.89 2 2 2h14c1.1 0 2-.89 2-2v-7h-2v7zM14 3v2h3.59l-9.83 9.83 1.41 1.41L19 6.41V10h2V3h-7z"/>
  </symbol>

  <!-- Filter -->
  <symbol id="pc-icon-filter" viewBox="0 0 24 24">
    <path fill="currentColor" d="M10 18h4v-2h-4v2zM3 6v2h18V6H3zm3 7h12v-2H6v2z"/>
  </symbol>

  <!-- Logout -->
  <symbol id="pc-icon-logout" viewBox="0 0 24 24">
    <path fill="currentColor" d="M17 7l-1.41 1.41L18.17 11H8v2h10.17l-2.58 2.58L17 17l5-5zM4 5h8V3H4c-1.1 0-2 .9-2 2v14c0 1.1.9 2 2 2h8v-2H4V5z"/>
  </symbol>

  <!-- GitHub -->
  <symbol id="pc-icon-github" viewBox="0 0 24 24">
    <path fill="currentColor" d="M12 .297c-6.63 0-12 5.373-12 12 0 5.303 3.438 9.8 8.205 11.385.6.113.82-.258.82-.577 0-.285-.01-1.04-.015-2.04-3.338.724-4.042-1.61-4.042-1.61C4.422 18.07 3.633 17.7 3.633 17.7c-1.087-.744.084-.729.084-.729 1.205.084 1.838 1.236 1.838 1.236 1.07 1.835 2.809 1.305 3.495.998.108-.776.417-1.305.76-1.605-2.665-.3-5.466-1.332-5.466-5.93 0-1.31.465-2.38 1.235-3.22-.135-.303-.54-1.523.105-3.176 0 0 1.005-.322 3.3 1.23.96-.267 1.98-.399 3-.405 1.02.006 2.04.138 3 .405 2.28-1.552 3.285-1.23 3.285-1.23.645 1.653.24 2.873.12 3.176.765.84 1.23 1.91 1.23 3.22 0 4.61-2.805 5.625-5.475 5.92.42.36.81 1.096.81 2.214 0 1.606-.015 2.896-.015 3.286 0 .315.21.69.825.57C20.565 22.092 24 17.592 24 12.297c0-6.627-5.373-12-12-12"/>
  </symbol>

  <!-- Moon (Dark Mode) -->
  <symbol id="pc-icon-moon" viewBox="0 0 24 24">
    <path fill="currentColor" d="M12 3c-4.97 0-9 4.03-9 9s4.03 9 9 9 9-4.03 9-9c0-.46-.04-.92-.1-1.36a5.389 5.389 0 0 1-4.4 2.26 5.403 5.403 0 0 1-3.14-9.8c-.44-.06-.9-.1-1.36-.1z"/>
  </symbol>

  <!-- Sun (Light Mode) -->
  <symbol id="pc-icon-sun" viewBox="0 0 24 24">
    <path fill="currentColor" d="M6.76 4.84l-1.8-1.79-1.41 1.41 1.79 1.79 1.42-1.41zM4 10.5H1v2h3v-2zm9-9.95h-2V3.5h2V.55zm7.45 3.91l-1.41-1.41-1.79 1.79 1.41 1.41 1.79-1.79zm-3.21 13.7l1.79 1.8 1.41-1.41-1.8-1.79-1.4 1.4zM20 10.5v2h3v-2h-3zm-8-5c-3.31 0-6 2.69-6 6s2.69 6 6 6 6-2.69 6-6-2.69-6-6-6zm-1 16.95h2V19.5h-2v2.95zm-7.45-3.91l1.41 1.41 1.79-1.8-1.41-1.41-1.79 1.8z"/>
  </symbol>

  <!-- Zoom In -->
  <symbol id="pc-icon-zoom-in" viewBox="0 0 24 24">
    <path fill="currentColor" d="M15.5 14h-.79l-.28-.27A6.471 6.471 0 0 0 16 9.5 6.5 6.5 0 1 0 9.5 16c1.61 0 3.09-.59 4.23-1.57l.27.28v.79l5 4.99L20.49 19l-4.99-5zm-6 0C7.01 14 5 11.99 5 9.5S7.01 5 9.5 5 14 7.01 14 9.5 11.99 14 9.5 14zm2.5-4h-2v-2h-1v2h-2v1h2v2h1v-2h2v-1z"/>
  </symbol>

  <!-- Zoom Out -->
  <symbol id="pc-icon-zoom-out" viewBox="0 0 24 24">
    <path fill="currentColor" d="M15.5 14h-.79l-.28-.27A6.471 6.471 0 0 0 16 9.5 6.5 6.5 0 1 0 9.5 16c1.61 0 3.09-.59 4.23-1.57l.27.28v.79l5 4.99L20.49 19l-4.99-5zm-6 0C7.01 14 5 11.99 5 9.5S7.01 5 9.5 5 14 7.01 14 9.5 11.99 14 9.5 14zM7 9h5v1H7z"/>
  </symbol>

  <!-- Grid -->
  <symbol id="pc-icon-grid" viewBox="0 0 24 24">
    <path fill="currentColor" d="M4 8h4V4H4v4zm6 12h4v-4h-4v4zm-6 0h4v-4H4v4zm0-6h4v-4H4v4zm6 0h4v-4h-4v4zm6-10v4h4V4h-4zm-6 4h4V4h-4v4zm6 6h4v-4h-4v4zm0 6h4v-4h-4v4z"/>
  </symbol>

  <!-- List -->
  <symbol id="pc-icon-list" viewBox="0 0 24 24">
    <path fill="currentColor" d="M3 13h2v-2H3v2zm0 4h2v-2H3v2zm0-8h2V7H3v2zm4 4h14v-2H7v2zm0 4h14v-2H7v2zM7 7v2h14V7H7z"/>
  </symbol>

  <!-- More Horizontal -->
  <symbol id="pc-icon-more-h" viewBox="0 0 24 24">
    <path fill="currentColor" d="M6 10c-1.1 0-2 .9-2 2s.9 2 2 2 2-.9 2-2-.9-2-2-2zm12 0c-1.1 0-2 .9-2 2s.9 2 2 2 2-.9 2-2-.9-2-2-2zm-6 0c-1.1 0-2 .9-2 2s.9 2 2 2 2-.9 2-2-.9-2-2-2z"/>
  </symbol>

  <!-- More Vertical -->
  <symbol id="pc-icon-more-v" viewBox="0 0 24 24">
    <path fill="currentColor" d="M12 8c1.1 0 2-.9 2-2s-.9-2-2-2-2 .9-2 2 .9 2 2 2zm0 2c-1.1 0-2 .9-2 2s.9 2 2 2 2-.9 2-2-.9-2-2-2zm0 6c-1.1 0-2 .9-2 2s.9 2 2 2 2-.9 2-2-.9-2-2-2z"/>
  </symbol>

  <!-- Attachment / Paperclip -->
  <symbol id="pc-icon-attachment" viewBox="0 0 24 24">
    <path fill="currentColor" d="M16.5 6v11.5c0 2.21-1.79 4-4 4s-4-1.79-4-4V5a2.5 2.5 0 015 0v10.5c0 .55-.45 1-1 1s-1-.45-1-1V6H10v9.5a2.5 2.5 0 005 0V5c0-2.21-1.79-4-4-4S7 2.79 7 5v12.5c0 3.04 2.46 5.5 5.5 5.5s5.5-2.46 5.5-5.5V6h-1.5z"/>
  </symbol>

  <!-- Link / Chain -->
  <symbol id="pc-icon-link" viewBox="0 0 24 24">
    <path fill="currentColor" d="M3.9 12c0-1.71 1.39-3.1 3.1-3.1h4V7H7c-2.76 0-5 2.24-5 5s2.24 5 5 5h4v-1.9H7c-1.71 0-3.1-1.39-3.1-3.1zM8 13h8v-2H8v2zm9-6h-4v1.9h4c1.71 0 3.1 1.39 3.1 3.1s-1.39 3.1-3.1 3.1h-4V17h4c2.76 0 5-2.24 5-5s-2.24-5-5-5z"/>
  </symbol>

  <!-- Unlock -->
  <symbol id="pc-icon-unlock" viewBox="0 0 24 24">
    <path fill="currentColor" d="M12 10c-1.1 0-2 .9-2 2s.9 2 2 2 2-.9 2-2-.9-2-2-2zm6-4h-1V4c0-2.76-2.24-5-5-5S7 1.24 7 4v2H6c-1.1 0-2 .9-2 2v10c0 1.1.9 2 2 2h12c1.1 0 2-.9 2-2V8c0-1.1-.9-2-2-2zM9 4c0-1.66 1.34-3 3-3s3 1.34 3 3v2H9V4z"/>
  </symbol>

  <!-- Eye Off / Hide -->
  <symbol id="pc-icon-eye-off" viewBox="0 0 24 24">
    <path fill="currentColor" d="M12 7c2.76 0 5 2.24 5 5 0 .65-.13 1.26-.36 1.83l2.92 2.92c1.51-1.26 2.7-2.89 3.43-4.75-1.73-4.39-6-7.5-11-7.5-1.4 0-2.74.25-3.98.7l2.16 2.16C11.74 7.13 12.35 7 12 7zM2 4.27l2.28 2.28.46.46C3.08 8.3 1.78 10.02 1 12c1.73 4.39 6 7.5 11 7.5 1.55 0 3.03-.3 4.38-.84l.42.42L19.73 22 21 20.73 3.27 3 2 4.27zM7.53 9.8l1.55 1.55c-.05.21-.08.43-.08.65 0 1.66 1.34 3 3 3 .22 0 .44-.03.65-.08l1.55 1.55c-.67.33-1.41.53-2.2.53-2.76 0-5-2.24-5-5 0-.79.2-1.53.53-2.2zm4.31-.78l3.15 3.15.02-.16c0-1.66-1.34-3-3-3l-.17.01z"/>
  </symbol>

  <!-- Terminal / Code Console -->
  <symbol id="pc-icon-terminal" viewBox="0 0 24 24">
    <path fill="currentColor" d="M20 4H4c-1.11 0-2 .89-2 2v12c0 1.11.89 2 2 2h16c1.11 0 2-.89 2-2V6c0-1.11-.89-2-2-2zm-8 12H6v-2h6v2zm6.5-2.5L14 17l-1.41-1.41L16.17 12 12.59 8.41 14 7l4.5 4.5z"/>
  </symbol>

  <!-- Code / Braces -->
  <symbol id="pc-icon-code" viewBox="0 0 24 24">
    <path fill="currentColor" d="M9.4 16.6L4.8 12l4.6-4.6L8 6l-6 6 6 6 1.4-1.4zm5.2 0l4.6-4.6-4.6-4.6L16 6l6 6-6 6-1.4-1.4z"/>
  </symbol>

</svg>
